<svg width="130" height="84" viewBox="0 0 130 84" fill="none" xmlns="http://www.w3.org/2000/svg">
<rect y="10" width="65" height="65" rx="32.5" fill="#DAE7F3"/>
<path d="M23.1429 28.9898L28.5321 51.3834L22.917 52.8879L16.3874 30.8L23.1429 28.9898ZM23.7527 59.3404C23.1681 57.3342 24.3943 55.2426 26.4619 54.712C28.4081 54.167 30.5378 55.3595 31.0785 57.3774C31.6251 59.4173 30.377 61.5148 28.4249 62.0379C26.3631 62.5903 24.2554 61.392 23.7527 59.3404Z" fill="url(#paint0_linear_2306_26)"/>
<path d="M35.1423 46.7334C35.4838 41.7561 36.9215 40.323 39.4176 38.9784C41.2095 37.9697 42.6291 36.8166 42.7279 34.9758C42.877 32.9777 41.4014 31.5773 39.4632 31.4321C37.6025 31.332 35.7829 32.4594 35.5519 34.7935L29.8735 34.4269C30.3363 28.8149 34.6894 26.3855 39.8079 26.716C45.3863 27.0763 49.138 30.2298 48.8191 35.1684C48.6061 38.4674 46.7723 40.4371 44.051 41.8475C41.7052 43.0412 40.6215 44.2763 40.4208 47.0742L40.3924 47.5141L35.1139 47.1732L35.1423 46.7334ZM34.1474 52.8129C34.2262 50.9708 35.8426 49.5694 37.7207 49.7107C39.5015 49.8057 40.9443 51.4046 40.8255 53.2441C40.7054 55.1036 39.069 56.5037 37.2895 56.3888C35.4101 56.2675 33.9873 54.6698 34.1474 52.8129Z" fill="url(#paint1_linear_2306_26)"/>
<rect x="65" y="10" width="65" height="65" rx="32.5" fill="#EBEEF0"/>
<path d="M88.1429 28.9898L93.5321 51.3834L87.917 52.8879L81.3874 30.8L88.1429 28.9898ZM88.7527 59.3404C88.1681 57.3342 89.3943 55.2426 91.4619 54.712C93.4081 54.167 95.5378 55.3595 96.0785 57.3774C96.6251 59.4173 95.377 61.5148 93.4249 62.0379C91.3631 62.5903 89.2554 61.392 88.7527 59.3404Z" fill="url(#paint2_linear_2306_26)"/>
<path d="M100.142 46.7334C100.484 41.7561 101.922 40.323 104.418 38.9784C106.209 37.9697 107.629 36.8166 107.728 34.9758C107.877 32.9777 106.401 31.5773 104.463 31.4321C102.602 31.332 100.783 32.4594 100.552 34.7935L94.8735 34.4269C95.3363 28.8149 99.6894 26.3855 104.808 26.716C110.386 27.0763 114.138 30.2298 113.819 35.1684C113.606 38.4674 111.772 40.4371 109.051 41.8475C106.705 43.0412 105.622 44.2763 105.421 47.0742L105.392 47.5141L100.114 47.1732L100.142 46.7334ZM99.1474 52.8129C99.2262 50.9708 100.843 49.5694 102.721 49.7107C104.502 49.8057 105.944 51.4046 105.825 53.2441C105.705 55.1036 104.069 56.5037 102.29 56.3888C100.41 56.2675 98.9873 54.6698 99.1474 52.8129Z" fill="url(#paint3_linear_2306_26)"/>
<defs>
<linearGradient id="paint0_linear_2306_26" x1="17.2444" y1="19.0584" x2="31.4795" y2="72.1843" gradientUnits="userSpaceOnUse">
<stop stop-color="#437AAB"/>
<stop offset="1" stop-color="#15548B"/>
</linearGradient>
<linearGradient id="paint1_linear_2306_26" x1="41.1049" y1="17.1926" x2="37.9474" y2="66.0907" gradientUnits="userSpaceOnUse">
<stop stop-color="#437AAB"/>
<stop offset="1" stop-color="#15548B"/>
</linearGradient>
<linearGradient id="paint2_linear_2306_26" x1="82.2444" y1="19.0584" x2="96.4795" y2="72.1843" gradientUnits="userSpaceOnUse">
<stop stop-color="#747C83"/>
<stop offset="1" stop-color="#565D64"/>
</linearGradient>
<linearGradient id="paint3_linear_2306_26" x1="106.105" y1="17.1926" x2="102.947" y2="66.0907" gradientUnits="userSpaceOnUse">
<stop stop-color="#747C83"/>
<stop offset="1" stop-color="#565D64"/>
</linearGradient>
</defs>
</svg>
