<svg width="130" height="84" viewBox="0 0 130 84" fill="none" xmlns="http://www.w3.org/2000/svg">
<path fill-rule="evenodd" clip-rule="evenodd" d="M45.6271 27.9322C45.6271 25.0194 44.3173 22.4124 42.2546 20.6682C42.2656 20.4808 42.2712 20.2919 42.2712 20.1017C42.2712 14.8503 38.0141 10.5932 32.7627 10.5932C32.6691 10.5932 32.5759 10.5946 32.4829 10.5973C30.9916 7.29674 27.6708 5 23.8136 5C19.9563 5 16.6356 7.29674 15.1442 10.5973C15.0513 10.5946 14.958 10.5932 14.8644 10.5932C9.61302 10.5932 5.35593 14.8503 5.35593 20.1017C5.35593 20.2919 5.36152 20.4808 5.37253 20.6682C3.30979 22.4124 2 25.0194 2 27.9322C2 32.2126 4.82838 35.8324 8.71817 37.0247L6.99093 48.8275C5.80189 56.9527 10.7463 64.3919 18.0836 66.8173C18.4609 68.6345 20.071 70 22 70H25C26.9935 70 28.6464 68.5417 28.9501 66.6337C35.9964 64.0337 40.678 56.7572 39.5175 48.8275L37.8287 37.2873C42.264 36.4818 45.6271 32.5998 45.6271 27.9322Z" fill="url(#paint0_linear_2306_24)"/>
<path d="M24 44L24 59" stroke="#20405C" stroke-width="3" stroke-linecap="round"/>
<path d="M53.4264 27C65.1421 38.7157 65.1421 57.7107 53.4264 69.4264C41.7107 81.1421 22.7157 81.1421 11 69.4264L53.4264 27Z" fill="#20405C"/>
<path d="M49.1838 31.2426C58.5563 40.6152 58.5563 55.8112 49.1838 65.1838C39.8112 74.5563 24.6152 74.5563 15.2426 65.1838L49.1838 31.2426Z" fill="url(#paint1_linear_2306_24)"/>
<path d="M44.234 57.4056C45.4056 58.5772 45.7222 60.1601 44.9411 60.9411C44.1601 61.7222 42.5772 61.4056 41.4056 60.234C40.234 59.0624 39.9174 57.4795 40.6985 56.6985C41.4795 55.9174 43.0624 56.234 44.234 57.4056Z" fill="#20405C"/>
<path d="M35.4391 62.8036C35.868 64.404 35.3507 65.9332 34.2838 66.219C33.2168 66.5049 32.0043 65.4393 31.5754 63.8389C31.1466 62.2385 31.6639 60.7094 32.7308 60.4235C33.7978 60.1376 35.0103 61.2032 35.4391 62.8036Z" fill="#20405C"/>
<path d="M47.1318 51.111C48.7322 51.5398 50.2613 51.0225 50.5472 49.9556C50.8331 48.8886 49.7675 47.6761 48.1671 47.2473C46.5667 46.8184 45.0375 47.3357 44.7517 48.4027C44.4658 49.4696 45.5314 50.6821 47.1318 51.111Z" fill="#20405C"/>
<path d="M24 20V27.5" stroke="#20405C" stroke-width="3" stroke-linecap="round"/>
<path d="M13 25L17 29" stroke="#20405C" stroke-width="3" stroke-linecap="round"/>
<path d="M35 25L31 29" stroke="#20405C" stroke-width="3" stroke-linecap="round"/>
<path fill-rule="evenodd" clip-rule="evenodd" d="M110.627 27.9322C110.627 25.0194 109.317 22.4124 107.255 20.6682C107.266 20.4808 107.271 20.2919 107.271 20.1017C107.271 14.8503 103.014 10.5932 97.7627 10.5932C97.6691 10.5932 97.5759 10.5946 97.4829 10.5973C95.9916 7.29674 92.6708 5 88.8136 5C84.9563 5 81.6356 7.29674 80.1442 10.5973C80.0513 10.5946 79.958 10.5932 79.8644 10.5932C74.613 10.5932 70.3559 14.8503 70.3559 20.1017C70.3559 20.2919 70.3615 20.4808 70.3725 20.6682C68.3098 22.4124 67 25.0194 67 27.9322C67 32.2126 69.8284 35.8324 73.7182 37.0247L71.9909 48.8275C70.8019 56.9527 75.7463 64.3919 83.0836 66.8173C83.4609 68.6345 85.071 70 87 70H90C91.9935 70 93.6464 68.5417 93.9501 66.6337C100.996 64.0337 105.678 56.7572 104.518 48.8275L102.829 37.2873C107.264 36.4818 110.627 32.5998 110.627 27.9322Z" fill="url(#paint2_linear_2306_24)"/>
<path d="M89 44L89 59" stroke="#565D64" stroke-width="3" stroke-linecap="round"/>
<path d="M118.426 27C130.142 38.7157 130.142 57.7107 118.426 69.4264C106.711 81.1421 87.7157 81.1421 76 69.4264L118.426 27Z" fill="#565D64"/>
<path d="M114.184 31.2426C123.556 40.6152 123.556 55.8112 114.184 65.1838C104.811 74.5563 89.6152 74.5563 80.2426 65.1838L114.184 31.2426Z" fill="#747C83"/>
<path d="M109.234 57.4056C110.406 58.5772 110.722 60.1601 109.941 60.9411C109.16 61.7222 107.577 61.4056 106.406 60.234C105.234 59.0624 104.917 57.4795 105.698 56.6985C106.48 55.9174 108.062 56.234 109.234 57.4056Z" fill="#565D64"/>
<path d="M100.439 62.8036C100.868 64.404 100.351 65.9332 99.2838 66.219C98.2168 66.5049 97.0043 65.4393 96.5754 63.8389C96.1466 62.2385 96.6639 60.7094 97.7308 60.4235C98.7978 60.1376 100.01 61.2032 100.439 62.8036Z" fill="#565D64"/>
<path d="M112.132 51.111C113.732 51.5398 115.261 51.0225 115.547 49.9556C115.833 48.8886 114.767 47.6761 113.167 47.2473C111.567 46.8184 110.038 47.3357 109.752 48.4027C109.466 49.4696 110.531 50.6821 112.132 51.111Z" fill="#565D64"/>
<path d="M89 20V27.5" stroke="#565D64" stroke-width="3" stroke-linecap="round"/>
<path d="M78 25L82 29" stroke="#565D64" stroke-width="3" stroke-linecap="round"/>
<path d="M100 25L96 29" stroke="#565D64" stroke-width="3" stroke-linecap="round"/>
<defs>
<linearGradient id="paint0_linear_2306_24" x1="23.8136" y1="5" x2="23.8136" y2="70" gradientUnits="userSpaceOnUse">
<stop stop-color="#619ACC"/>
<stop offset="1" stop-color="#15548B"/>
</linearGradient>
<linearGradient id="paint1_linear_2306_24" x1="36.6066" y1="27" x2="36.6066" y2="78.2132" gradientUnits="userSpaceOnUse">
<stop stop-color="#4E91CC"/>
<stop offset="1" stop-color="#3679B4"/>
</linearGradient>
<linearGradient id="paint2_linear_2306_24" x1="88.8136" y1="5" x2="88.8136" y2="70" gradientUnits="userSpaceOnUse">
<stop stop-color="#747C83"/>
<stop offset="1" stop-color="#565D64"/>
</linearGradient>
</defs>
</svg>
