<svg width="130" height="84" viewBox="0 0 130 84" fill="none" xmlns="http://www.w3.org/2000/svg">
<rect x="65" width="65" height="84" rx="4" fill="#F3F6F8"/>
<circle cx="109" cy="36" r="10" fill="#747C83"/>
<path d="M97 57C97 50.3726 102.373 45 109 45C115.627 45 121 50.3726 121 57V58.9831C121 59.5447 120.545 60 119.983 60H98.0169C97.4553 60 97 59.5447 97 58.9831V57Z" fill="#747C83"/>
<circle cx="87" cy="36" r="10" fill="#747C83"/>
<path d="M75 57C75 50.3726 80.3726 45 87 45C93.6274 45 99 50.3726 99 57V58.9831C99 59.5447 98.5447 60 97.9831 60H76.0169C75.4553 60 75 59.5447 75 58.9831V57Z" fill="#747C83"/>
<rect width="65" height="84" rx="4" fill="#DAE7F3"/>
<circle cx="44" cy="36" r="10" fill="#437AAB"/>
<path d="M32 57C32 50.3726 37.3726 45 44 45C50.6274 45 56 50.3726 56 57V58.9831C56 59.5447 55.5447 60 54.9831 60H33.0169C32.4553 60 32 59.5447 32 58.9831V57Z" fill="#437AAB"/>
<circle cx="22" cy="36" r="10" fill="#437AAB"/>
<path d="M10 57C10 50.3726 15.3726 45 22 45C28.6274 45 34 50.3726 34 57V58.9831C34 59.5447 33.5447 60 32.9831 60H11.0169C10.4553 60 10 59.5447 10 58.9831V57Z" fill="#437AAB"/>
</svg>
