<svg width="130" height="84" viewBox="0 0 130 84" fill="none" xmlns="http://www.w3.org/2000/svg">
<rect x="65" width="65" height="84" rx="4" fill="#F3F6F8"/>
<circle cx="111" cy="33" r="10" fill="#747C83"/>
<path d="M99 54C99 47.3726 104.373 42 111 42C117.627 42 123 47.3726 123 54V55.9831C123 56.5447 122.545 57 121.983 57H100.017C99.4553 57 99 56.5447 99 55.9831V54Z" fill="#747C83"/>
<circle cx="84" cy="33" r="10" fill="#747C83"/>
<path d="M72 54C72 47.3726 77.3726 42 84 42C90.6274 42 96 47.3726 96 54V55.9831C96 56.5447 95.5447 57 94.9831 57H73.0169C72.4553 57 72 56.5447 72 55.9831V54Z" fill="#747C83"/>
<circle cx="90.5" cy="46.375" r="6.375" fill="#565D64"/>
<path d="M82 60.25C82 55.5556 85.8056 51.75 90.5 51.75C95.1944 51.75 99 55.5556 99 60.25V60.6642C99 61.0222 98.7097 61.3125 98.3517 61.3125H82.6483C82.2903 61.3125 82 61.0222 82 60.6642V60.25Z" fill="#565D64"/>
<circle cx="104.5" cy="46.375" r="6.375" fill="#565D64"/>
<path d="M96 60.25C96 55.5556 99.8056 51.75 104.5 51.75C109.194 51.75 113 55.5556 113 60.25V60.6642C113 61.0222 112.71 61.3125 112.352 61.3125H96.6483C96.2903 61.3125 96 61.0222 96 60.6642V60.25Z" fill="#565D64"/>
<rect width="65" height="84" rx="4" fill="#DAE7F3"/>
<circle cx="46" cy="33" r="10" fill="#437AAB"/>
<path d="M34 54C34 47.3726 39.3726 42 46 42C52.6274 42 58 47.3726 58 54V55.9831C58 56.5447 57.5447 57 56.9831 57H35.0169C34.4553 57 34 56.5447 34 55.9831V54Z" fill="#437AAB"/>
<circle cx="19" cy="33" r="10" fill="#437AAB"/>
<path d="M7 54C7 47.3726 12.3726 42 19 42C25.6274 42 31 47.3726 31 54V55.9831C31 56.5447 30.5447 57 29.9831 57H8.01695C7.4553 57 7 56.5447 7 55.9831V54Z" fill="#437AAB"/>
<circle cx="25.5" cy="46.375" r="6.375" fill="#32485C"/>
<path d="M17 60.25C17 55.5556 20.8056 51.75 25.5 51.75C30.1944 51.75 34 55.5556 34 60.25V60.6642C34 61.0222 33.7097 61.3125 33.3517 61.3125H17.6483C17.2903 61.3125 17 61.0222 17 60.6642V60.25Z" fill="#32485C"/>
<circle cx="39.5" cy="46.375" r="6.375" fill="#32485C"/>
<path d="M31 60.25C31 55.5556 34.8056 51.75 39.5 51.75C44.1944 51.75 48 55.5556 48 60.25V60.6642C48 61.0222 47.7097 61.3125 47.3517 61.3125H31.6483C31.2903 61.3125 31 61.0222 31 60.6642V60.25Z" fill="#32485C"/>
</svg>
