<svg width="130" height="84" viewBox="0 0 130 84" fill="none" xmlns="http://www.w3.org/2000/svg">
<rect width="65" height="84" rx="4" fill="#DAE7F3"/>
<circle cx="33" cy="36" r="10" fill="#437AAB"/>
<path d="M21 57C21 50.3726 26.3726 45 33 45C39.6274 45 45 50.3726 45 57V58.9831C45 59.5447 44.5447 60 43.9831 60H22.0169C21.4553 60 21 59.5447 21 58.9831V57Z" fill="#437AAB"/>
<rect x="65" width="65" height="84" rx="4" fill="#F3F6F8"/>
<circle cx="98" cy="36" r="10" fill="#747C83"/>
<path d="M86 57C86 50.3726 91.3726 45 98 45C104.627 45 110 50.3726 110 57V58.9831C110 59.5447 109.545 60 108.983 60H87.0169C86.4553 60 86 59.5447 86 58.9831V57Z" fill="#747C83"/>
</svg>
