<svg width="130" height="84" viewBox="0 0 130 84" fill="none" xmlns="http://www.w3.org/2000/svg">
<rect x="65" width="65" height="84" rx="4" fill="#F3F6F8"/>
<circle cx="112" cy="33" r="10" fill="#747C83"/>
<path d="M100 54C100 47.3726 105.373 42 112 42C118.627 42 124 47.3726 124 54V55.9831C124 56.5447 123.545 57 122.983 57H101.017C100.455 57 100 56.5447 100 55.9831V54Z" fill="#747C83"/>
<circle cx="85" cy="33" r="10" fill="#747C83"/>
<path d="M73 54C73 47.3726 78.3726 42 85 42C91.6274 42 97 47.3726 97 54V55.9831C97 56.5447 96.5447 57 95.9831 57H74.0169C73.4553 57 73 56.5447 73 55.9831V54Z" fill="#747C83"/>
<circle cx="98.5" cy="46.375" r="6.375" fill="#565D64"/>
<path d="M90 60.25C90 55.5556 93.8056 51.75 98.5 51.75C103.194 51.75 107 55.5556 107 60.25V60.6642C107 61.0222 106.71 61.3125 106.352 61.3125H90.6483C90.2903 61.3125 90 61.0222 90 60.6642V60.25Z" fill="#565D64"/>
<rect width="65" height="84" rx="4" fill="#DAE7F3"/>
<circle cx="47" cy="33" r="10" fill="#437AAB"/>
<path d="M35 54C35 47.3726 40.3726 42 47 42C53.6274 42 59 47.3726 59 54V55.9831C59 56.5447 58.5447 57 57.9831 57H36.0169C35.4553 57 35 56.5447 35 55.9831V54Z" fill="#437AAB"/>
<circle cx="20" cy="33" r="10" fill="#437AAB"/>
<path d="M8 54C8 47.3726 13.3726 42 20 42C26.6274 42 32 47.3726 32 54V55.9831C32 56.5447 31.5447 57 30.9831 57H9.01695C8.4553 57 8 56.5447 8 55.9831V54Z" fill="#437AAB"/>
<circle cx="33.5" cy="46.375" r="6.375" fill="#32485C"/>
<path d="M25 60.25C25 55.5556 28.8056 51.75 33.5 51.75C38.1944 51.75 42 55.5556 42 60.25V60.6642C42 61.0222 41.7097 61.3125 41.3517 61.3125H25.6483C25.2903 61.3125 25 61.0222 25 60.6642V60.25Z" fill="#32485C"/>
</svg>
