<svg width="336" height="154" viewBox="0 0 336 154" fill="none" xmlns="http://www.w3.org/2000/svg">
<path d="M333.319 55.0126C335.009 58.7444 335.924 62.5837 335.995 66.503L335.496 66.5121C335.499 66.6746 335.5 66.8372 335.5 67C335.5 67.1628 335.499 67.3254 335.496 67.4879L335.995 67.497C335.924 71.4163 335.009 75.2556 333.319 78.9874L332.863 78.7811C332.729 79.0779 332.589 79.374 332.445 79.6695L332.894 79.889C331.258 83.2369 328.998 86.4956 326.162 89.6451L325.79 89.3106C325.572 89.5526 325.351 89.7941 325.126 90.0349L325.492 90.3761C322.955 93.0932 319.989 95.727 316.626 98.2643L316.325 97.8651C316.06 98.0653 315.792 98.265 315.521 98.464L315.818 98.8666C312.796 101.092 309.467 103.241 305.854 105.305L305.606 104.87C305.506 104.928 305.406 104.985 305.305 105.042C305.121 105.146 304.936 105.251 304.751 105.355L304.995 105.791C301.683 107.648 298.139 109.435 294.38 111.145L294.173 110.69C293.872 110.827 293.57 110.963 293.266 111.099L293.47 111.556C289.978 113.119 286.305 114.616 282.464 116.043L282.29 115.574C281.978 115.69 281.666 115.805 281.352 115.92L281.524 116.389C277.911 117.71 274.154 118.97 270.261 120.162L270.115 119.684C269.797 119.781 269.479 119.878 269.16 119.974L269.305 120.453C265.606 121.57 261.787 122.627 257.858 123.621L257.735 123.136C257.678 123.151 257.621 123.165 257.563 123.18C257.544 123.184 257.525 123.189 257.506 123.194C257.262 123.256 257.017 123.317 256.772 123.378L256.892 123.863C253.127 124.802 249.261 125.682 245.303 126.501L245.201 126.012C244.879 126.079 244.557 126.145 244.233 126.211L244.333 126.701C240.514 127.479 236.61 128.201 232.628 128.863L232.546 128.37C232.401 128.394 232.257 128.418 232.112 128.442C231.934 128.471 231.755 128.5 231.577 128.53L231.657 129.023C227.805 129.652 223.882 130.227 219.893 130.743L219.829 130.247C219.5 130.289 219.171 130.331 218.841 130.373L218.904 130.869C215.027 131.36 211.089 131.797 207.095 132.176L207.048 131.679C206.72 131.71 206.392 131.74 206.064 131.771L206.11 132.269C202.205 132.63 198.248 132.937 194.244 133.187L194.213 132.688C193.883 132.709 193.553 132.729 193.223 132.749L193.253 133.248C189.34 133.483 185.384 133.665 181.388 133.79L181.372 133.291C181.177 133.297 180.982 133.303 180.787 133.309C180.652 133.313 180.518 133.317 180.383 133.321L180.397 133.82C176.467 133.935 172.499 133.995 168.498 134L168.498 133.5L168 133.5L167.502 133.5L167.502 134C163.501 133.995 159.533 133.935 155.603 133.82L155.617 133.321C155.287 133.311 154.958 133.301 154.628 133.291L154.612 133.79C150.616 133.665 146.66 133.483 142.747 133.248L142.777 132.749C142.447 132.729 142.117 132.709 141.787 132.688L141.756 133.187C137.752 132.937 133.795 132.63 129.89 132.269L129.936 131.771C129.84 131.762 129.743 131.753 129.646 131.744C129.415 131.722 129.183 131.701 128.952 131.679L128.905 132.176C124.911 131.797 120.973 131.36 117.096 130.869L117.158 130.373C116.829 130.331 116.5 130.289 116.171 130.247L116.107 130.743C112.118 130.227 108.195 129.652 104.343 129.023L104.423 128.53C104.1 128.477 103.777 128.423 103.454 128.37L103.372 128.863C99.3902 128.201 95.4862 127.479 91.6667 126.701L91.7665 126.211C91.4432 126.145 91.1206 126.079 90.7985 126.012L90.6972 126.501C86.7392 125.682 82.8734 124.801 79.1075 123.863L79.2284 123.378C78.9064 123.298 78.5852 123.217 78.2647 123.136L78.1421 123.621C74.213 122.627 70.3943 121.57 66.6953 120.453L66.8398 119.974C66.5207 119.878 66.2025 119.781 65.8852 119.684L65.7387 120.162C61.8463 118.97 58.0885 117.71 54.4762 116.389L54.6479 115.92C54.3343 115.805 54.0218 115.69 53.7104 115.574L53.5363 116.043C49.6953 114.616 46.0221 113.119 42.5298 111.556L42.7341 111.099C42.4302 110.963 42.1278 110.827 41.8267 110.69L41.6196 111.145C37.8609 109.435 34.317 107.648 31.0046 105.791L31.2491 105.355C30.9622 105.194 30.677 105.032 30.3935 104.87L30.1455 105.305C26.5328 103.241 23.2041 101.092 20.1821 98.8666L20.4785 98.464C20.2082 98.265 19.9403 98.0653 19.675 97.8651L19.3739 98.2643C16.0111 95.727 13.045 93.0932 10.5083 90.3761L10.8737 90.0349C10.6489 89.7941 10.4275 89.5526 10.2096 89.3106L9.83804 89.6451C7.00245 86.4956 4.74153 83.2369 3.10572 79.889L3.55496 79.6695C3.41057 79.374 3.27116 79.0778 3.13676 78.7811L2.6813 78.9874C0.991134 75.2556 0.0759247 71.4163 0.00452585 67.497L0.504443 67.4879C0.501483 67.3254 0.5 67.1628 0.5 67C0.5 66.8372 0.501483 66.6746 0.504443 66.5121L0.0045262 66.503C0.0759277 62.5837 0.991139 58.7444 2.68131 55.0126L3.13677 55.2189C3.27117 54.9221 3.41058 54.626 3.55497 54.3305L3.10572 54.111C4.74154 50.7631 7.00246 47.5044 9.83805 44.3549L10.2096 44.6894C10.4276 44.4474 10.6489 44.2059 10.8738 43.9651L10.5083 43.6239C13.045 40.9068 16.0112 38.273 19.3739 35.7357L19.675 36.1349C19.9404 35.9347 20.2082 35.735 20.4785 35.536L20.1821 35.1334C23.2042 32.9085 26.5328 30.7595 30.1455 28.6954L30.3935 29.1296C30.677 28.9676 30.9622 28.8062 31.2491 28.6453L31.0046 28.2092C34.317 26.352 37.861 24.565 41.6196 22.8549L41.8267 23.31C42.1278 23.173 42.4303 23.0365 42.7341 22.9005L42.5299 22.4442C46.0222 20.8811 49.6954 19.3838 53.5363 17.9573L53.7104 18.426C54.0218 18.3104 54.3343 18.1952 54.6479 18.0805L54.4762 17.6109C58.0885 16.2896 61.8463 15.0305 65.7388 13.8378L65.8852 14.3159C66.2025 14.2186 66.5207 14.1219 66.8398 14.0255L66.6953 13.5469C70.3944 12.4301 74.213 11.373 78.1421 10.3792L78.2647 10.8639C78.5852 10.7828 78.9064 10.7022 79.2284 10.622L79.1075 10.1368C82.8734 9.1985 86.7392 8.31802 90.6972 7.49852L90.7986 7.98813C91.1206 7.92145 91.4433 7.85517 91.7665 7.7893L91.6667 7.29937C95.4862 6.52108 99.3902 5.79938 103.372 5.13703L103.454 5.63026C103.777 5.57658 104.1 5.5233 104.423 5.4704L104.343 4.97695C108.195 4.34752 112.118 3.7735 116.107 3.25737L116.171 3.75324C116.5 3.71071 116.829 3.66857 117.159 3.62683L117.096 3.1308C120.973 2.63973 124.911 2.20326 128.905 1.82367L128.952 2.32142C129.28 2.29028 129.608 2.25953 129.936 2.22916L129.89 1.73128C133.795 1.37009 137.752 1.06319 141.756 0.812696L141.787 1.31172C142.117 1.29109 142.447 1.27085 142.777 1.25099L142.747 0.751893C146.66 0.516678 150.616 0.335273 154.612 0.209628L154.628 0.709381C154.958 0.699021 155.287 0.68904 155.617 0.67944L155.603 0.179652C159.533 0.0653239 163.501 0.00492043 167.502 0.000288399L167.502 0.500288L168 0.5L168.498 0.500288L168.498 0.000288416C172.499 0.00492059 176.467 0.0653242 180.397 0.179652L180.383 0.679441C180.713 0.689041 181.042 0.699021 181.372 0.709381L181.388 0.209628C185.384 0.335273 189.34 0.516679 193.253 0.751894L193.223 1.25099C193.553 1.27085 193.883 1.2911 194.213 1.31172L194.244 0.812696C198.248 1.06319 202.205 1.37009 206.11 1.73128L206.064 2.22916C206.392 2.25953 206.72 2.29029 207.048 2.32142L207.095 1.82367C211.089 2.20327 215.027 2.63973 218.904 3.1308L218.842 3.62684C219.171 3.66857 219.5 3.71071 219.829 3.75324L219.893 3.25737C223.882 3.7735 227.805 4.34752 231.657 4.97695L231.577 5.47041C231.9 5.5233 232.223 5.57658 232.546 5.63026L232.628 5.13704C236.61 5.79938 240.514 6.52108 244.333 7.29937L244.233 7.7893C244.557 7.85518 244.879 7.92146 245.201 7.98814L245.303 7.49852C249.261 8.31803 253.127 9.1985 256.893 10.1368L256.772 10.622C257.094 10.7022 257.415 10.7829 257.735 10.8639L257.858 10.3792C261.787 11.373 265.606 12.4301 269.305 13.5469L269.16 14.0255C269.479 14.1219 269.797 14.2186 270.115 14.3159L270.261 13.8378C274.154 15.0305 277.911 16.2896 281.524 17.6109L281.352 18.0805C281.666 18.1952 281.978 18.3104 282.29 18.426L282.464 17.9573C286.305 19.3838 289.978 20.8811 293.47 22.4442L293.266 22.9006C293.57 23.0366 293.872 23.173 294.173 23.31L294.38 22.8549C298.139 24.565 301.683 26.352 304.995 28.2092L304.751 28.6453C305.038 28.8062 305.323 28.9677 305.606 29.1296L305.854 28.6955C309.467 30.7595 312.796 32.9085 315.818 35.1334L315.521 35.536C315.792 35.735 316.06 35.9347 316.325 36.1349L316.626 35.7357C319.989 38.273 322.955 40.9068 325.492 43.6239L325.126 43.9651C325.351 44.2059 325.572 44.4474 325.79 44.6894L326.162 44.3549C328.998 47.5044 331.258 50.7631 332.894 54.111L332.445 54.3305C332.589 54.626 332.729 54.9222 332.863 55.2189L333.319 55.0126Z" stroke="#404245" stroke-dasharray="1 12"/>
<circle cx="167.5" cy="133.5" r="20.5" fill="#151516"/>
<path d="M155.873 134C154.682 134.784 154 135.695 154 136.667C154 139.612 160.268 142 168 142C175.732 142 182 139.612 182 136.667C182 135.695 181.318 134.784 180.127 134" stroke="white" stroke-linecap="round"/>
<path d="M158.924 129.466C159.019 129.305 159.137 129.151 159.276 129.004C159.415 128.857 159.577 128.729 159.76 128.619C159.951 128.502 160.163 128.41 160.398 128.344C160.64 128.271 160.911 128.234 161.212 128.234C161.571 128.234 161.894 128.282 162.18 128.377C162.473 128.472 162.719 128.608 162.917 128.784C163.122 128.953 163.28 129.162 163.39 129.411C163.5 129.653 163.555 129.921 163.555 130.214V130.324C163.555 130.478 163.533 130.643 163.489 130.819C163.445 130.988 163.372 131.153 163.269 131.314C163.166 131.475 163.027 131.626 162.851 131.765C162.675 131.904 162.455 132.018 162.191 132.106C162.741 132.201 163.155 132.418 163.434 132.755C163.72 133.092 163.863 133.492 163.863 133.954V134.119C163.863 134.405 163.815 134.684 163.72 134.955C163.625 135.226 163.471 135.472 163.258 135.692C163.053 135.905 162.778 136.077 162.433 136.209C162.096 136.341 161.685 136.407 161.201 136.407C160.739 136.407 160.292 136.334 159.859 136.187C159.434 136.048 159.034 135.828 158.66 135.527L159.045 134.911C159.434 135.19 159.797 135.391 160.134 135.516C160.479 135.641 160.834 135.703 161.201 135.703C161.546 135.703 161.839 135.655 162.081 135.56C162.323 135.465 162.517 135.344 162.664 135.197C162.818 135.043 162.928 134.874 162.994 134.691C163.067 134.5 163.104 134.313 163.104 134.13V133.987C163.104 133.686 163.042 133.441 162.917 133.25C162.8 133.052 162.649 132.898 162.466 132.788C162.29 132.671 162.092 132.59 161.872 132.546C161.659 132.502 161.458 132.48 161.267 132.48H160.376V131.82H161.3C161.549 131.82 161.766 131.776 161.949 131.688C162.132 131.593 162.283 131.472 162.4 131.325C162.525 131.178 162.616 131.017 162.675 130.841C162.741 130.658 162.774 130.482 162.774 130.313V130.225C162.774 129.829 162.635 129.517 162.356 129.29C162.085 129.055 161.707 128.938 161.223 128.938C160.908 128.938 160.603 129.004 160.31 129.136C160.017 129.261 159.756 129.503 159.529 129.862L158.924 129.466ZM169.909 129.4C169.659 129.253 169.392 129.14 169.106 129.059C168.827 128.971 168.534 128.927 168.226 128.927C167.852 128.927 167.536 129.004 167.28 129.158C167.023 129.305 166.81 129.521 166.642 129.807C166.473 130.093 166.345 130.445 166.257 130.863C166.169 131.274 166.11 131.743 166.081 132.271C166.139 132.154 166.224 132.029 166.334 131.897C166.451 131.765 166.59 131.644 166.752 131.534C166.92 131.424 167.115 131.336 167.335 131.27C167.555 131.197 167.804 131.16 168.083 131.16C168.42 131.16 168.739 131.215 169.04 131.325C169.348 131.435 169.615 131.596 169.843 131.809C170.077 132.014 170.261 132.271 170.393 132.579C170.532 132.88 170.602 133.224 170.602 133.613V133.877C170.602 134.266 170.536 134.618 170.404 134.933C170.272 135.241 170.088 135.505 169.854 135.725C169.626 135.945 169.351 136.114 169.029 136.231C168.713 136.348 168.372 136.407 168.006 136.407C167.632 136.407 167.28 136.341 166.95 136.209C166.627 136.084 166.345 135.89 166.103 135.626C165.861 135.362 165.67 135.028 165.531 134.625C165.391 134.214 165.322 133.734 165.322 133.184V132.92C165.322 132.069 165.388 131.347 165.52 130.753C165.659 130.159 165.853 129.675 166.103 129.301C166.352 128.927 166.656 128.656 167.016 128.487C167.375 128.318 167.782 128.234 168.237 128.234C168.596 128.234 168.948 128.282 169.293 128.377C169.645 128.472 169.971 128.604 170.272 128.773L169.909 129.4ZM166.158 133.723C166.158 134.024 166.202 134.295 166.29 134.537C166.378 134.779 166.502 134.988 166.664 135.164C166.825 135.34 167.016 135.476 167.236 135.571C167.463 135.666 167.712 135.714 167.984 135.714C168.255 135.714 168.504 135.674 168.732 135.593C168.959 135.505 169.153 135.384 169.315 135.23C169.483 135.069 169.612 134.874 169.7 134.647C169.795 134.412 169.843 134.145 169.843 133.844V133.679C169.843 133.386 169.791 133.125 169.689 132.898C169.586 132.663 169.45 132.469 169.282 132.315C169.113 132.154 168.915 132.033 168.688 131.952C168.468 131.871 168.237 131.831 167.995 131.831C167.76 131.831 167.533 131.875 167.313 131.963C167.093 132.051 166.898 132.172 166.73 132.326C166.561 132.48 166.422 132.667 166.312 132.887C166.209 133.1 166.158 133.331 166.158 133.58V133.723ZM177.186 132.931C177.186 134.053 176.974 134.915 176.548 135.516C176.123 136.11 175.434 136.407 174.48 136.407C173.542 136.407 172.86 136.106 172.434 135.505C172.009 134.904 171.796 134.046 171.796 132.931V131.699C171.796 130.592 172.013 129.737 172.445 129.136C172.878 128.535 173.556 128.234 174.48 128.234C175.419 128.234 176.105 128.535 176.537 129.136C176.97 129.73 177.186 130.584 177.186 131.699V132.931ZM176.394 131.688C176.394 130.705 176.233 130.001 175.91 129.576C175.595 129.143 175.118 128.927 174.48 128.927C173.872 128.927 173.402 129.143 173.072 129.576C172.75 130.009 172.588 130.713 172.588 131.688V132.942C172.588 133.925 172.75 134.632 173.072 135.065C173.402 135.498 173.872 135.714 174.48 135.714C175.111 135.714 175.588 135.501 175.91 135.076C176.233 134.643 176.394 133.932 176.394 132.942V131.688Z" fill="white"/>
</svg>
