<svg width="87" height="116" viewBox="0 0 87 116" fill="none" xmlns="http://www.w3.org/2000/svg">
<path d="M55.9981 9.73563C51.8349 9.73563 48.329 13.4483 48.329 17.5977V8.86207C48.329 4.27586 44.8232 1 40.2217 1C36.0585 1 32.5527 4.71264 32.5527 8.86207V16.069C32.5527 11.4828 29.0468 8.2069 24.4454 8.2069C20.2822 8.2069 16.7763 11.9195 16.7763 16.069V30.9195C16.7763 26.3333 13.2705 23.0575 8.66905 23.0575C4.50585 23.0575 1 26.7701 1 30.9195V85.0805C1 100.805 15.2425 115 33.4291 115C47.9784 115 61.0377 108.23 67.6887 97.56L84.8893 67.8662C87.19 63.8945 85.7972 59.3104 81.8123 57.0173C78.2069 54.9425 73.3082 56.4107 71.2266 60.0042L64.1053 71.5402V51.8851V17.5977C64.1053 13.0115 60.5995 9.73563 55.9981 9.73563Z" fill="white"/>
<path d="M48.329 51.8851V17.5977C48.329 13.4483 51.8349 9.73563 55.9981 9.73563C60.5995 9.73563 64.1053 13.0115 64.1053 17.5977V51.8851V71.5402L71.2266 60.0042C73.3082 56.4107 78.2069 54.9425 81.8123 57.0172C85.7972 59.3104 87.19 63.8945 84.8893 67.8662L67.6887 97.56C61.0377 108.23 47.9784 115 33.4291 115C15.2425 115 1 100.805 1 85.0805V30.9195C1 26.7701 4.50585 23.0575 8.66905 23.0575C13.2705 23.0575 16.7763 26.3333 16.7763 30.9195V51.8851V16.069C16.7763 11.9195 20.2822 8.2069 24.4454 8.2069C29.0468 8.2069 32.5527 11.4828 32.5527 16.069V51.8851V8.86207C32.5527 4.71264 36.0585 1 40.2217 1C44.8232 1 48.329 4.27586 48.329 8.86207V51.8851Z" stroke="#252A2B" stroke-width="2"/>
</svg>
