<svg width="130" height="184" viewBox="0 0 130 184" fill="none" xmlns="http://www.w3.org/2000/svg">
<path d="M55.2153 123.431L20.0361 102.002L13.9645 96.1089L11.4645 90.216V82.3587L13.9645 74.8585L17.8932 68.787L22.8933 65.2155L12.3573 42.7151L3.96432 18.6075L2 6.10725L3.96432 2.35718H5.92865L11.8216 8.6073L34.6792 45.5723L41.6436 42.0008H46.108L50.2152 44.1437L57.001 41.8222L62.1797 42.8937L66.2869 46.6437L70.037 44.5008L74.5014 45.2151L77.5371 47.8938L81.1086 53.9653L87.8945 76.8229L91.2874 93.6089L93.0732 110.752L109.681 142.003L68.6084 168.432L55.2153 123.431Z" fill="white"/>
<path d="M37.5122 51.1672C9.83311 4.02344 6.26162 -2.22668 2.69012 4.02343C-0.881376 10.2736 15.0115 53.1315 26.7977 71.3461" stroke="#1E262D" stroke-width="3"/>
<path d="M28.6291 70.708C25.5107 71.0272 24.0942 73.9696 24.5526 77.5895" stroke="#1E262D" stroke-width="3"/>
<path d="M34.3223 45.9295C42.1796 40.3937 50.0368 37.7151 56.287 53.9654" stroke="#1E262D" stroke-width="3"/>
<path d="M50.3936 43.9653C58.7866 40.0366 65.2153 41.2866 71.8225 55.5726" stroke="#1E262D" stroke-width="3"/>
<path d="M66.4656 46.4328C72.7604 42.4932 77.5819 43.7467 82.5374 58.0724C90.1089 79.5014 92.8352 102.002 93.2519 110.573L109.859 142.181L68.7871 168.432L54.8583 123.788L20.7505 102.716" stroke="#1E262D" stroke-width="3"/>
<path d="M22.8933 64.8584C11.8216 72.5371 4.32141 91.1089 20.7502 102.716" stroke="#1E262D" stroke-width="3"/>
<path d="M2.17871 5.39282C3.96446 11.6429 7.71453 13.0715 9.67885 11.6429C11.2503 10.5001 10.5717 7 9.85743 5.92855" stroke="#1E262D" stroke-width="3"/>
<path d="M107.277 120.225L127.214 151.621C104.254 156.379 86.2814 165.476 67.4129 181.389L56.178 145.763C56.4799 145.468 56.8873 145.075 57.3929 144.602C58.6026 143.468 60.3726 141.873 62.6027 140.035C67.0679 136.354 73.3536 131.72 80.6603 127.875C87.9255 124.051 94.8082 122.129 99.8721 121.165C102.403 120.683 104.474 120.441 105.905 120.319C106.464 120.272 106.925 120.243 107.277 120.225Z" fill="white" stroke="#1E262D" stroke-width="3" stroke-linejoin="round"/>
<path d="M73.2814 154.446C73.7928 156.167 73.7764 157.795 73.4116 159.012C73.0424 160.244 72.3923 160.871 71.7495 161.062C71.1068 161.253 70.2199 161.083 69.2378 160.253C68.2676 159.433 67.3645 158.078 66.8531 156.357C66.3417 154.636 66.3581 153.008 66.7229 151.791C67.0922 150.559 67.7423 149.933 68.385 149.741C69.0277 149.55 69.9147 149.72 70.8967 150.551C71.8669 151.371 72.77 152.726 73.2814 154.446Z" fill="white" stroke="#1E262D" stroke-width="3"/>
</svg>
