<svg width="404" height="349" viewBox="0 0 404 349" fill="none" xmlns="http://www.w3.org/2000/svg">
<path d="M206 6L404 178V349H206H0V6H206Z" fill="url(#paint0_linear_2379_67)" fill-opacity="0.6"/>
<rect y="210" width="86" height="134" fill="url(#paint1_linear_2379_67)"/>
<rect x="8" y="344" width="13" height="5" fill="#0A0A0A"/>
<rect x="72" y="344" width="13" height="5" fill="#0A0A0A"/>
<rect x="88" y="344" width="13" height="5" fill="#0A0A0A"/>
<rect x="155" y="344" width="13" height="5" fill="#0A0A0A"/>
<rect x="188" y="344" width="13" height="5" fill="#0A0A0A"/>
<rect x="87" y="210" width="86" height="134" fill="url(#paint2_linear_2379_67)"/>
<rect width="86" height="210" fill="url(#paint3_linear_2379_67)"/>
<rect x="87" width="86" height="210" fill="url(#paint4_linear_2379_67)"/>
<rect x="85" width="3" height="344" fill="#474B4F"/>
<rect x="149" y="203" width="7.00001" height="125" transform="rotate(90 149 203)" fill="url(#paint5_linear_2379_67)"/>
<rect x="22" y="203" width="7" height="22" transform="rotate(90 22 203)" fill="#474B4F"/>
<rect x="151" y="203" width="7" height="2" transform="rotate(90 151 203)" fill="#8F969D"/>
<rect x="24" y="203" width="7" height="2" transform="rotate(90 24 203)" fill="#8F969D"/>
<rect x="173" y="203" width="7" height="22" transform="rotate(90 173 203)" fill="#474B4F"/>
<path d="M173 0L184 0V5.5L206.058 5.5V344H173V0Z" fill="#474B4F"/>
<rect x="173" width="3" height="344" fill="#0A0A0A"/>
<defs>
<linearGradient id="paint0_linear_2379_67" x1="292.5" y1="215.5" x2="404" y2="235.5" gradientUnits="userSpaceOnUse">
<stop stop-color="#997F5F"/>
<stop offset="1" stop-color="#997F5F" stop-opacity="0"/>
</linearGradient>
<linearGradient id="paint1_linear_2379_67" x1="7.5" y1="210" x2="67.5" y2="344" gradientUnits="userSpaceOnUse">
<stop stop-color="#D7C3A6"/>
<stop offset="1" stop-color="#D1B284"/>
</linearGradient>
<linearGradient id="paint2_linear_2379_67" x1="91" y1="214.5" x2="150" y2="340.5" gradientUnits="userSpaceOnUse">
<stop stop-color="#D7C3A6"/>
<stop offset="1" stop-color="#D1B284"/>
</linearGradient>
<linearGradient id="paint3_linear_2379_67" x1="43" y1="0" x2="43" y2="210" gradientUnits="userSpaceOnUse">
<stop stop-color="white"/>
<stop offset="1" stop-color="#F1E4D0"/>
</linearGradient>
<linearGradient id="paint4_linear_2379_67" x1="130" y1="0" x2="130" y2="210" gradientUnits="userSpaceOnUse">
<stop stop-color="white"/>
<stop offset="1" stop-color="#F1E4D0"/>
</linearGradient>
<linearGradient id="paint5_linear_2379_67" x1="152.5" y1="328" x2="152.499" y2="203" gradientUnits="userSpaceOnUse">
<stop stop-color="#282827"/>
<stop offset="1" stop-color="#575757"/>
</linearGradient>
</defs>
</svg>
