<svg width="402" height="349" viewBox="0 0 402 349" fill="none" xmlns="http://www.w3.org/2000/svg">
<path d="M208 5.5L401.5 209V349H195.5H8.26567e-05L0 6L208 5.5Z" fill="url(#paint0_linear_2379_42)" fill-opacity="0.6"/>
<rect y="344" width="13" height="5" fill="#0A0A0A"/>
<rect x="68" y="344" width="13" height="5" fill="#0A0A0A"/>
<rect x="101" y="344" width="13" height="5" fill="#0A0A0A"/>
<rect width="86" height="203" fill="url(#paint1_linear_2379_42)"/>
<rect y="203" width="86" height="141" fill="url(#paint2_linear_2379_42)"/>
<path d="M86 0L97 0V5.5L119.058 5.5V344H86L86 0Z" fill="#474B4F"/>
<rect x="86" width="3" height="344" fill="#0A0A0A"/>
<rect x="89" y="344" width="13" height="5" fill="#0A0A0A"/>
<rect x="157" y="344" width="13" height="5" fill="#0A0A0A"/>
<rect x="190" y="344" width="13" height="5" fill="#0A0A0A"/>
<rect x="89" width="86" height="344" fill="url(#paint3_linear_2379_42)"/>
<path d="M175 0L186 0V5.5L208.058 5.5V344H175V0Z" fill="#474B4F"/>
<rect x="175" width="3" height="344" fill="#0A0A0A"/>
<rect x="72" y="203" width="7" height="58" transform="rotate(90 72 203)" fill="url(#paint4_linear_2379_42)"/>
<rect x="12" y="203" width="7" height="12" transform="rotate(90 12 203)" fill="#474B4F"/>
<rect x="14" y="203" width="7" height="2" transform="rotate(90 14 203)" fill="#8F969D"/>
<rect x="86" y="203" width="7" height="12" transform="rotate(90 86 203)" fill="#474B4F"/>
<rect x="74" y="203" width="7" height="2" transform="rotate(90 74 203)" fill="#8F969D"/>
<defs>
<linearGradient id="paint0_linear_2379_42" x1="277" y1="233.5" x2="402" y2="263.5" gradientUnits="userSpaceOnUse">
<stop stop-color="#99695F"/>
<stop offset="1" stop-color="#99695F" stop-opacity="0"/>
</linearGradient>
<linearGradient id="paint1_linear_2379_42" x1="43" y1="0" x2="43" y2="203" gradientUnits="userSpaceOnUse">
<stop stop-color="#FF985E"/>
<stop offset="1" stop-color="#EF7734"/>
</linearGradient>
<linearGradient id="paint2_linear_2379_42" x1="43" y1="203" x2="43" y2="344" gradientUnits="userSpaceOnUse">
<stop stop-color="#0AC095"/>
<stop offset="1" stop-color="#179476"/>
</linearGradient>
<linearGradient id="paint3_linear_2379_42" x1="132" y1="0" x2="132" y2="344" gradientUnits="userSpaceOnUse">
<stop stop-color="#F9F3ED"/>
<stop offset="0.715" stop-color="#F9F3ED"/>
<stop offset="1" stop-color="#D7BEB0"/>
</linearGradient>
<linearGradient id="paint4_linear_2379_42" x1="75.5" y1="261" x2="75.4998" y2="203" gradientUnits="userSpaceOnUse">
<stop stop-color="#282827"/>
<stop offset="1" stop-color="#575757"/>
</linearGradient>
</defs>
</svg>
