<svg width="87" height="116" viewBox="0 0 87 116" fill="none" xmlns="http://www.w3.org/2000/svg">
<path d="M31.0019 9.73563C35.1651 9.73563 38.671 13.4483 38.671 17.5977V8.86207C38.671 4.27586 42.1768 1 46.7783 1C50.9415 1 54.4473 4.71264 54.4473 8.86207V16.069C54.4473 11.4828 57.9532 8.2069 62.5546 8.2069C66.7178 8.2069 70.2237 11.9195 70.2237 16.069V30.9195C70.2237 26.3333 73.7295 23.0575 78.3309 23.0575C82.4941 23.0575 86 26.7701 86 30.9195V85.0805C86 100.805 71.7575 115 53.5709 115C39.0216 115 25.9623 108.23 19.3113 97.56L2.11069 67.8662C-0.190025 63.8945 1.20275 59.3104 5.18771 57.0173C8.79314 54.9425 13.6918 56.4107 15.7734 60.0042L22.8947 71.5402V51.8851V17.5977C22.8947 13.0115 26.4005 9.73563 31.0019 9.73563Z" fill="white"/>
<path d="M38.671 51.8851V17.5977C38.671 13.4483 35.1651 9.73563 31.0019 9.73563C26.4005 9.73563 22.8947 13.0115 22.8947 17.5977V51.8851V71.5402L15.7734 60.0042C13.6918 56.4107 8.79315 54.9425 5.18771 57.0172C1.20275 59.3104 -0.190029 63.8945 2.11069 67.8662L19.3113 97.56C25.9623 108.23 39.0216 115 53.5709 115C71.7575 115 86 100.805 86 85.0805V30.9195C86 26.7701 82.4941 23.0575 78.3309 23.0575C73.7295 23.0575 70.2237 26.3333 70.2237 30.9195V51.8851V16.069C70.2237 11.9195 66.7178 8.2069 62.5546 8.2069C57.9532 8.2069 54.4473 11.4828 54.4473 16.069V51.8851V8.86207C54.4473 4.71264 50.9415 1 46.7783 1C42.1768 1 38.671 4.27586 38.671 8.86207V51.8851Z" stroke="#252A2B" stroke-width="2"/>
</svg>
